<?xml version="1.0" encoding="UTF-8" standalone="no"?>
<svg width="50px" height="48px" viewBox="0 0 50 48" version="1.1" xmlns="http://www.w3.org/2000/svg" xmlns:xlink="http://www.w3.org/1999/xlink" xmlns:sketch="http://www.bohemiancoding.com/sketch/ns">
    <!-- Generator: Sketch 3.2.2 (9983) - http://www.bohemiancoding.com/sketch -->
    <title>Star</title>
    <desc>Created with Sketch.</desc>
    <defs></defs>
    <g id="Page-1" stroke="none" stroke-width="1" fill="none" fill-rule="evenodd" sketch:type="MSPage">
        <g id="INN-Homepage" sketch:type="MSArtboardGroup" transform="translate(-1135.000000, -2440.000000)" fill="#AAAAAA">
            <path d="M1174.67223,2488 C1174.41229,2488 1174.15507,2487.91958 1173.93439,2487.75875 L1159.99932,2477.56747 L1146.06696,2487.75875 C1145.62561,2488.08042 1145.02722,2488.08042 1144.58586,2487.75875 C1144.14722,2487.43571 1143.96039,2486.86324 1144.12962,2486.34121 L1149.45156,2469.85143 L1135.51785,2459.65879 C1135.0765,2459.33712 1134.89373,2458.76465 1135.06161,2458.24125 C1135.23084,2457.72058 1135.71416,2457.3662 1136.25705,2457.3662 L1153.48194,2457.3662 L1158.80388,2440.87506 C1158.97041,2440.35302 1159.45508,2440 1159.99932,2440 C1160.54492,2440 1161.02824,2440.35302 1161.19612,2440.87506 L1166.51941,2457.3662 L1183.74295,2457.3662 C1184.2872,2457.3662 1184.76916,2457.72058 1184.93839,2458.24125 C1185.10627,2458.76465 1184.9235,2459.33712 1184.48215,2459.65879 L1170.54979,2469.85007 L1175.87173,2486.34121 C1176.03961,2486.86324 1175.85413,2487.43571 1175.41278,2487.75875 C1175.19346,2487.91958 1174.93217,2488 1174.67223,2488 M1159.99932,2474.73239 C1160.25926,2474.73239 1160.5192,2474.81418 1160.73852,2474.97501 L1172.27729,2483.41481 L1167.8719,2469.75875 C1167.70267,2469.23671 1167.88814,2468.66424 1168.32814,2468.34121 L1179.86556,2459.90141 L1165.60557,2459.90141 C1165.05862,2459.90141 1164.5753,2459.54702 1164.40742,2459.02635 L1159.99932,2445.37029 L1155.59393,2459.02635 C1155.4247,2459.54702 1154.94138,2459.90141 1154.39443,2459.90141 L1140.13444,2459.90141 L1151.67321,2468.34121 C1152.11186,2468.66424 1152.29733,2469.23671 1152.12946,2469.75875 L1147.72271,2483.41481 L1159.26148,2474.97501 C1159.4808,2474.81418 1159.74074,2474.73239 1159.99932,2474.73239" id="Star" sketch:type="MSShapeGroup"></path>
        </g>
    </g>
</svg>