<?xml version="1.0" encoding="UTF-8" standalone="no"?>
<svg width="50px" height="37px" viewBox="0 0 50 37" version="1.1" xmlns="http://www.w3.org/2000/svg" xmlns:xlink="http://www.w3.org/1999/xlink" xmlns:sketch="http://www.bohemiancoding.com/sketch/ns">
    <!-- Generator: Sketch 3.2.2 (9983) - http://www.bohemiancoding.com/sketch -->
    <title>journobiz</title>
    <desc>Created with Sketch.</desc>
    <defs></defs>
    <g id="Page-1" stroke="none" stroke-width="1" fill="none" fill-rule="evenodd" sketch:type="MSPage">
        <g id="INN-Homepage" sketch:type="MSArtboardGroup" transform="translate(-254.000000, -2180.000000)">
            <g id="journobiz" sketch:type="MSLayerGroup" transform="translate(253.090327, 2180.000000)">
                <g id="Group" transform="translate(1.000000, 0.000000)" sketch:type="MSShapeGroup">
                    <g transform="translate(2.112676, 2.081250)" id="Shape" fill="#FFFFFF">
                        <path d="M30.7366197,0.2150625 L0.0330985915,0.2150625 L0.0330985915,20.23715 C0.0330985915,22.3634937 1.78943662,24.0939375 3.94859155,24.0939375 C6.10704225,24.0939375 7.86338028,22.363725 7.86338028,20.23715 L7.86338028,12.5219563 C7.86338028,9.24653125 10.5680751,6.58160625 13.8931925,6.58160625 L30.7368545,6.58160625 L30.7368545,0.2150625 L30.7366197,0.2150625 Z"></path>
                        <path d="M18.4748826,8.6649375 C19.37723,9.70325 19.92277,11.050975 19.92277,12.5219562 L19.92277,32.6659125 L45.6535211,32.6659125 L45.6535211,12.5219562 C45.6535211,10.3953812 43.8971831,8.6649375 41.7380282,8.6649375 L18.4748826,8.6649375 L18.4748826,8.6649375 Z"></path>
                    </g>
                    <path d="M43.850939,8.66285625 L34.9638498,8.66285625 L34.9638498,1.2547625 C34.9638498,0.679875 34.4903756,0.2132125 33.9065728,0.2132125 L1.08849765,0.2132125 C0.504460094,0.2132125 0.0312206573,0.679875 0.0312206573,1.2547625 L0.0312206573,22.3181687 C0.0312206573,25.5931312 2.73568075,28.2580562 6.06126761,28.2580562 L19.9211268,28.2580562 L19.9211268,35.7884812 C19.9211268,36.3638312 20.3943662,36.8300312 20.978169,36.8300312 L48.8237089,36.8300312 C49.407277,36.8300312 49.8812207,36.3638312 49.8812207,35.7884812 L49.8812207,14.602975 C49.8809859,11.3277812 47.1760563,8.66285625 43.850939,8.66285625 L43.850939,8.66285625 Z M2.14577465,22.3184 L2.14577465,2.2963125 L32.8492958,2.2963125 L32.8492958,8.66285625 L16.0056338,8.66285625 C12.6807512,8.66285625 9.9758216,11.32755 9.9758216,14.6032062 L9.9758216,22.3184 C9.9758216,24.4447437 8.21971831,26.1751875 6.06103286,26.1751875 C3.90211268,26.1749562 2.14577465,24.4447437 2.14577465,22.3184 L2.14577465,22.3184 Z M47.7661972,34.7471625 L22.035446,34.7471625 L22.035446,14.6032062 C22.035446,13.1324562 21.4899061,11.7847312 20.5875587,10.7461875 L43.850939,10.7461875 C46.0098592,10.7461875 47.7664319,12.4764 47.7664319,14.6032062 L47.7664319,34.7471625 L47.7661972,34.7471625 Z" id="Shape" fill="#AAAAAA"></path>
                    <g transform="translate(2.112676, 2.081250)" id="Shape">
                        <path d="M41.7382629,8.6649375 L18.4748826,8.6649375 C19.37723,9.70325 19.92277,11.050975 19.92277,12.5219562 L19.92277,32.6659125 L45.6535211,32.6659125 L45.6535211,12.5219562 C45.6535211,10.3953812 43.8971831,8.6649375 41.7382629,8.6649375 L41.7382629,8.6649375 Z"></path>
                        <path d="M30.7366197,0.2150625 L0.0330985915,0.2150625 L0.0330985915,20.23715 C0.0330985915,22.3634937 1.78943662,24.0939375 3.94859155,24.0939375 C5.55539906,24.0939375 6.93826291,23.135175 7.54084507,21.7677937 L3.24530516,21.7677937 C2.85610329,21.7677937 2.54061033,21.4569937 2.54061033,21.0735812 C2.54061033,20.6901687 2.85610329,20.3793687 3.24530516,20.3793687 L7.85962441,20.3793687 C7.86126761,20.3319625 7.86338028,20.2845562 7.86338028,20.23715 L7.86338028,18.4937562 L3.24530516,18.4937562 C2.85610329,18.4937562 2.54061033,18.1829562 2.54061033,17.7995437 C2.54061033,17.4156687 2.85610329,17.1048687 3.24530516,17.1048687 L7.86338028,17.1048687 L7.86338028,15.2201812 L3.24530516,15.2201812 C2.85610329,15.2201812 2.54061033,14.9093812 2.54061033,14.5257375 C2.54061033,14.1425562 2.85610329,13.831525 3.24530516,13.831525 L7.86338028,13.831525 L7.86338028,12.5219562 C7.86338028,12.3073562 7.87558685,12.0955312 7.89835681,11.8869437 L3.24530516,11.8869437 C2.85610329,11.8869437 2.54061033,11.5761437 2.54061033,11.1925 C2.54061033,10.8090875 2.85610329,10.4982875 3.24530516,10.4982875 L8.22394366,10.4982875 C8.47276995,9.824425 8.842723,9.2079125 9.30633803,8.6723375 L3.24530516,8.6723375 C2.85610329,8.6723375 2.54061033,8.3615375 2.54061033,7.97789375 C2.54061033,7.59448125 2.85610329,7.28345 3.24530516,7.28345 L11.0532864,7.28345 C11.9004695,6.8362125 12.8671362,6.58160625 13.8931925,6.58160625 L30.7368545,6.58160625 L30.7368545,0.2150625 L30.7366197,0.2150625 Z M12.8107981,5.2997875 L3.24507042,5.2997875 C2.85586854,5.2997875 2.54037559,4.9889875 2.54037559,4.60534375 C2.54037559,4.2221625 2.85586854,3.91113125 3.24507042,3.91113125 L12.8107981,3.91113125 C13.2,3.91113125 13.5150235,4.2221625 13.5150235,4.60534375 C13.5150235,4.98921875 13.2,5.2997875 12.8107981,5.2997875 L12.8107981,5.2997875 Z M27.1007042,5.2997875 L16.4913146,5.2997875 C16.1016432,5.2997875 15.786385,4.9889875 15.786385,4.60534375 C15.786385,4.2221625 16.1016432,3.91113125 16.4913146,3.91113125 L27.1007042,3.91113125 C27.4899061,3.91113125 27.8058685,4.2221625 27.8058685,4.60534375 C27.8058685,4.98921875 27.4899061,5.2997875 27.1007042,5.2997875 L27.1007042,5.2997875 Z"></path>
                        <path d="M12.8107981,3.9113625 L3.24507042,3.9113625 C2.85586854,3.9113625 2.54037559,4.22239375 2.54037559,4.605575 C2.54037559,4.98921875 2.85586854,5.30001875 3.24507042,5.30001875 L12.8107981,5.30001875 C13.2,5.30001875 13.5150235,4.98921875 13.5150235,4.605575 C13.5150235,4.2221625 13.2,3.9113625 12.8107981,3.9113625 L12.8107981,3.9113625 Z" fill="#BCBBBB"></path>
                        <path d="M27.1007042,3.9113625 L16.4913146,3.9113625 C16.1016432,3.9113625 15.786385,4.22239375 15.786385,4.605575 C15.786385,4.98921875 16.1016432,5.30001875 16.4913146,5.30001875 L27.1007042,5.30001875 C27.4899061,5.30001875 27.8058685,4.98921875 27.8058685,4.605575 C27.8058685,4.2221625 27.4899061,3.9113625 27.1007042,3.9113625 L27.1007042,3.9113625 Z" fill="#BCBBBB"></path>
                        <path d="M2.54037559,7.978125 C2.54037559,8.36176875 2.85586854,8.67256875 3.24507042,8.67256875 L9.30610329,8.67256875 C9.79389671,8.10924375 10.3859155,7.6363375 11.0528169,7.28368125 L3.24483568,7.28368125 C2.85586854,7.28368125 2.54037559,7.59448125 2.54037559,7.978125 L2.54037559,7.978125 Z" fill="#BCBBBB"></path>
                        <path d="M2.54037559,14.5257375 C2.54037559,14.9093812 2.85586854,15.2201812 3.24507042,15.2201812 L7.86314554,15.2201812 L7.86314554,13.831525 L3.24507042,13.831525 C2.85586854,13.831525 2.54037559,14.1425563 2.54037559,14.5257375 L2.54037559,14.5257375 Z" fill="#BCBBBB"></path>
                        <path d="M2.54037559,11.1925 C2.54037559,11.5761437 2.85586854,11.8869438 3.24507042,11.8869438 L7.89812207,11.8869438 C7.95023474,11.4045563 8.06079812,10.9392813 8.22370892,10.4982875 L3.24507042,10.4982875 C2.85586854,10.4982875 2.54037559,10.8090875 2.54037559,11.1925 L2.54037559,11.1925 Z" fill="#BCBBBB"></path>
                        <path d="M2.54037559,17.7995438 C2.54037559,18.1829563 2.85586854,18.4937563 3.24507042,18.4937563 L7.86314554,18.4937563 L7.86314554,17.1048688 L3.24507042,17.1048688 C2.85586854,17.1048688 2.54037559,17.4156688 2.54037559,17.7995438 L2.54037559,17.7995438 Z" fill="#BCBBBB"></path>
                        <path d="M2.54037559,21.0735813 C2.54037559,21.4569938 2.85586854,21.7677938 3.24507042,21.7677938 L7.54061033,21.7677938 C7.72957746,21.3395188 7.84131455,20.870775 7.85938967,20.3793688 L3.24507042,20.3793688 C2.85586854,20.3793688 2.54037559,20.6901687 2.54037559,21.0735813 L2.54037559,21.0735813 Z" fill="#BCBBBB"></path>
                    </g>
                    <g transform="translate(24.178404, 18.962500)" id="Shape" fill="#BCBBBB">
                        <path d="M14.6086854,7.58153125 L0.474882629,7.58153125 C0.224647887,7.58153125 0.0218309859,7.7811 0.0218309859,8.02784375 L0.0218309859,12.9372812 C0.0218309859,13.1837937 0.224413146,13.3840563 0.474882629,13.3840563 L14.6086854,13.3840563 C14.8586854,13.3840563 15.0615023,13.184025 15.0615023,12.9372812 L15.0615023,8.02784375 C15.0615023,7.7811 14.8589202,7.58153125 14.6086854,7.58153125 L14.6086854,7.58153125 Z"></path>
                        <path d="M0.474882629,5.90358125 L3.99084507,5.90358125 C4.24107981,5.90358125 4.44413146,5.7040125 4.44413146,5.45726875 L4.44413146,0.54736875 C4.44413146,0.30085625 4.24131455,0.10105625 3.99084507,0.10105625 L0.474882629,0.10105625 C0.224647887,0.10105625 0.0218309859,0.300625 0.0218309859,0.54736875 L0.0218309859,5.4575 C0.0220657277,5.7040125 0.224647887,5.90358125 0.474882629,5.90358125 L0.474882629,5.90358125 Z"></path>
                        <path d="M21.0389671,0.1012875 L17.5232394,0.1012875 C17.27277,0.1012875 17.0699531,0.30085625 17.0699531,0.5476 L17.0699531,12.9375125 C17.0699531,13.184025 17.2725352,13.3842875 17.5232394,13.3842875 L21.0389671,13.3842875 C21.2894366,13.3842875 21.4922535,13.1842563 21.4922535,12.9375125 L21.4922535,0.5476 C21.4922535,0.30085625 21.2894366,0.1012875 21.0389671,0.1012875 L21.0389671,0.1012875 Z"></path>
                        <path d="M14.6086854,0.1012875 L6.6528169,0.1012875 C6.40305164,0.1012875 6.19976526,0.30085625 6.19976526,0.5476 L6.19976526,5.4575 C6.19976526,5.7040125 6.4028169,5.9038125 6.6528169,5.9038125 L14.6086854,5.9038125 C14.8586854,5.9038125 15.0615023,5.70424375 15.0615023,5.4575 L15.0615023,0.5476 C15.0615023,0.30085625 14.8589202,0.1012875 14.6086854,0.1012875 L14.6086854,0.1012875 Z"></path>
                    </g>
                    <g transform="translate(24.178404, 13.875000)" id="Shape" fill="#BCBBBB">
                        <path d="M0.990140845,0.1429125 C0.458450704,0.1429125 0.0258215962,0.56910625 0.0258215962,1.09265625 C0.0258215962,1.61666875 0.458685446,2.0428625 0.990140845,2.0428625 C1.52206573,2.0428625 1.95469484,1.6164375 1.95469484,1.09265625 C1.95469484,0.568875 1.52183099,0.1429125 0.990140845,0.1429125 L0.990140845,0.1429125 Z"></path>
                        <path d="M4.18685446,0.1429125 C3.65492958,0.1429125 3.22276995,0.56910625 3.22276995,1.09265625 C3.22276995,1.61666875 3.65516432,2.0428625 4.18685446,2.0428625 C4.71924883,2.0428625 5.15140845,1.6164375 5.15140845,1.09265625 C5.15140845,0.568875 4.71924883,0.1429125 4.18685446,0.1429125 L4.18685446,0.1429125 Z"></path>
                        <path d="M7.28333333,0.1429125 C6.75117371,0.1429125 6.31877934,0.56910625 6.31877934,1.09265625 C6.31877934,1.61666875 6.75140845,2.0428625 7.28333333,2.0428625 C7.81525822,2.0428625 8.24741784,1.6164375 8.24741784,1.09265625 C8.24765258,0.568875 7.81525822,0.1429125 7.28333333,0.1429125 L7.28333333,0.1429125 Z"></path>
                    </g>
                </g>
            </g>
        </g>
    </g>
</svg>