<?xml version="1.0" encoding="UTF-8" standalone="no"?>
<svg width="50px" height="46px" viewBox="0 0 50 46" version="1.1" xmlns="http://www.w3.org/2000/svg" xmlns:xlink="http://www.w3.org/1999/xlink" xmlns:sketch="http://www.bohemiancoding.com/sketch/ns">
    <!-- Generator: Sketch 3.2.2 (9983) - http://www.bohemiancoding.com/sketch -->
    <title>Fill 60</title>
    <desc>Created with Sketch.</desc>
    <defs></defs>
    <g id="Page-1" stroke="none" stroke-width="1" fill="none" fill-rule="evenodd" sketch:type="MSPage">
        <g id="INN-Homepage" sketch:type="MSArtboardGroup" transform="translate(-260.000000, -2717.000000)" fill="#AAAAAA">
            <path d="M269.195509,2763 C266.739238,2763 264.430282,2762.03501 262.693524,2760.28332 C260.956767,2758.53163 260,2756.20439 260,2753.727 C260,2751.24961 260.956767,2748.91924 262.693524,2747.16755 L289.008498,2720.62635 C293.803188,2715.792 301.60619,2715.79044 306.39933,2720.62635 C308.722243,2722.96923 310,2726.08317 310,2729.39574 C310,2732.7083 308.722243,2735.82381 306.39933,2738.16513 L286.662325,2758.07181 L284.623186,2756.01514 L304.360191,2736.10846 C308.029091,2732.40801 308.029091,2726.38346 304.360191,2722.68302 C300.692842,2718.98257 294.718087,2718.97945 291.047637,2722.68302 L264.732663,2749.22579 C263.540194,2750.42694 262.884258,2752.02692 262.884258,2753.727 C262.884258,2755.42708 263.540194,2757.02393 264.732663,2758.22821 C267.193586,2760.70873 271.197432,2760.70717 273.656804,2758.22821 L293.39381,2738.31996 C294.646756,2737.05781 294.646756,2735.00427 293.39381,2733.74055 C292.143965,2732.47996 290.106376,2732.47996 288.856531,2733.74055 L275.697494,2747.01428 L273.656804,2744.95448 L286.815842,2731.68388 C289.191477,2729.28938 293.058864,2729.28782 295.434499,2731.68388 C297.810135,2734.0815 297.810135,2737.98057 295.434499,2740.37663 L275.697494,2760.28332 C273.960737,2762.03501 271.65023,2763 269.195509,2763" id="Fill-60" sketch:type="MSShapeGroup"></path>
        </g>
    </g>
</svg>