<?xml version="1.0" encoding="UTF-8" standalone="no"?>
<svg width="50px" height="50px" viewBox="0 0 50 50" version="1.1" xmlns="http://www.w3.org/2000/svg" xmlns:xlink="http://www.w3.org/1999/xlink" xmlns:sketch="http://www.bohemiancoding.com/sketch/ns">
    <!-- Generator: Sketch 3.2.2 (9983) - http://www.bohemiancoding.com/sketch -->
    <title>Pencil</title>
    <desc>Created with Sketch.</desc>
    <defs></defs>
    <g id="Page-1" stroke="none" stroke-width="1" fill="none" fill-rule="evenodd" sketch:type="MSPage">
        <g id="INN-Homepage" sketch:type="MSArtboardGroup" transform="translate(-699.000000, -2438.000000)" fill="#AAAAAA">
            <g id="Pencil" sketch:type="MSLayerGroup" transform="translate(699.000000, 2438.000000)">
                <path d="M0.68843006,49.8698869 L4.94626323,32.8301952 L30.8635086,6.90729338 L43.640501,19.6861887 L17.7232556,45.6108374 L0.68843006,49.8698869 L0.68843006,49.8698869 Z M7.88029101,34.4932859 L5.15234375,45.404698 L16.0623863,42.6759715 L39.0456039,19.6861887 L30.8635086,11.5017561 L7.88029101,34.4932859 L7.88029101,34.4932859 Z" id="Fill-180" sketch:type="MSShapeGroup"></path>
                <path d="M14.8852823,44.6430305 C13.781529,40.2127805 10.3427786,36.7730478 5.91204737,35.6672323 L6.69969411,32.5174922 C12.2970507,33.9115535 16.6422061,38.2579502 18.0376157,43.8586526 L14.8852823,44.6430305" id="Fill-181" sketch:type="MSShapeGroup"></path>
                <path d="M14.5482184,38.3033707 L12.2516431,36.0078863 L34.9554295,13.2976145 L37.2520048,15.5930989 L14.5482184,38.3033707" id="Fill-182" sketch:type="MSShapeGroup"></path>
                <path d="M2.9203869,47.6372925 L7.9885706,46.3707581 C7.52052331,44.4997811 6.05700231,43.035842 4.18655961,42.567661 L2.9203869,47.6372925" id="Fill-183" sketch:type="MSShapeGroup"></path>
                <path d="M44.8368159,18.489532 L32.0598235,5.71063675 L37.1489645,0.620041963 L37.9435971,0.72835249 C44.1120412,1.54941616 48.9951017,6.43387156 49.8194238,12.6040777 L49.9242105,13.3989372 L44.8368159,18.489532 L44.8368159,18.489532 Z M36.6529741,5.71063675 L44.8368159,13.8950693 L46.4679956,12.2634236 C45.6069982,8.16509305 42.3813141,4.9384875 38.2841539,4.07899106 L36.6529741,5.71063675 L36.6529741,5.71063675 Z" id="Fill-184" sketch:type="MSShapeGroup"></path>
            </g>
        </g>
    </g>
</svg>