<?xml version="1.0" encoding="utf-8"?>
<!-- Generator: Adobe Illustrator 20.1.0, SVG Export Plug-In . SVG Version: 6.00 Build 0)  -->
<svg version="1.1" id="Layer_1" xmlns="http://www.w3.org/2000/svg" xmlns:xlink="http://www.w3.org/1999/xlink" x="0px" y="0px"
	 viewBox="0 0 1920 800" style="enable-background:new 0 0 1920 800;" xml:space="preserve">
<style type="text/css">
	.st0{opacity:0.15;fill:#FFFFFF;enable-background:new    ;}
	.st1{fill:#5F66AE;}
</style>
<path class="st0" d="M1443.5,429.3V300.4h-128.9V171.5h-141.8v141.8h128.9v128.9h128.9V571h141.8V429.3H1443.5z M1185.7,300.4v-116
	h116v116H1185.7z M1314.6,429.3v-116h116v116H1314.6z M1559.5,558.1h-116v-116h116V558.1z"/>
<path class="st0" d="M479.4,299v138h-138v151.7h137.9h13.8H631v-138v-13.8V299H479.4z M479.4,574.8H355.2V450.7h124.1L479.4,574.8
	L479.4,574.8z M617.2,574.8H493.1V450.7h124.1V574.8z M493.1,436.9v-124h124.1V437L493.1,436.9L493.1,436.9z"/>
<rect class="st1" width="1920" height="800"/>
<path class="st0" d="M1403.7,201.2v-136h-136h-13.6h-136v149.6h136h13.6h122.4v136h149.6V201.2H1403.7z M1254.1,201.2h-122.4V78.8
	h122.4V201.2z M1267.7,201.2V78.8h122.4v122.4L1267.7,201.2L1267.7,201.2z M1526.2,337.2h-122.4V214.8h122.4V337.2z"/>
<path class="st0" d="M666.1,389.7V240.4H516.9v135.7H381.2v149.3h135.7v135.7h149.3V511.8H530.4V389.7H666.1z M530.4,254h122.1
	v122.1H530.4V254z M652.6,525.3v122.1H530.4V525.3H652.6z M516.9,511.8H394.7V389.7h122.1v122.1H516.9z"/>
</svg>
