<?xml version="1.0" encoding="utf-8"?>
<!-- Generator: Adobe Illustrator 20.1.0, SVG Export Plug-In . SVG Version: 6.00 Build 0)  -->
<svg version="1.1" id="Layer_1" xmlns="http://www.w3.org/2000/svg" xmlns:xlink="http://www.w3.org/1999/xlink" x="0px" y="0px"
	 viewBox="0 0 1920 800" style="enable-background:new 0 0 1920 800;" xml:space="preserve">
<style type="text/css">
	.st0{fill:#30B49C;}
	.st1{opacity:0.15;fill:#FFFFFF;}
</style>
<rect x="-0.2" class="st0" width="1920.2" height="800"/>
<path class="st1" d="M1542.1,509V354h-155V199h-170.5v170.5h155v155h155v155h170.5V509H1542.1z M1232.1,354V214.5h139.5V354H1232.1z
	 M1387.1,509V369.5h139.5V509H1387.1z M1681.6,664h-139.5V524.5h139.5V664z"/>
<path class="st1" d="M382.6,352.4v165.9H216.7v182.4h165.9h16.6H565V534.8v-16.6V352.4H382.6z M382.6,684.1H233.3V534.8h149.3V684.1
	z M548.4,684.1H399.1V534.8h149.3V684.1z M399.1,518.2V369h149.3v149.3H399.1z"/>
</svg>
