<?xml version="1.0" encoding="utf-8"?>
<!-- Generator: Adobe Illustrator 20.1.0, SVG Export Plug-In . SVG Version: 6.00 Build 0)  -->
<svg version="1.1" id="Layer_1" xmlns="http://www.w3.org/2000/svg" xmlns:xlink="http://www.w3.org/1999/xlink" x="0px" y="0px"
	 viewBox="0 0 1920 581" style="enable-background:new 0 0 1920 581;" xml:space="preserve">
<style type="text/css">
	.st0{fill:#30B49C;}
	.st1{opacity:0.15;fill:#FFFFFF;enable-background:new    ;}
</style>
<rect x="-0.2" y="-138.2" class="st0" width="1920.2" height="800"/>
<path class="st1" d="M1443.5,319.8V190.9h-128.9V62h-141.8v141.8h128.9v128.9h128.9v128.9h141.8V319.8H1443.5z M1185.7,190.9v-116
	h116v116H1185.7z M1314.6,319.8v-116h116v116H1314.6z M1559.5,448.6h-116v-116h116V448.6z"/>
<path class="st1" d="M479.4,189.5v137.9H341.4v151.7h137.9h13.8H631V341.2v-13.8V189.5H479.4z M479.4,465.3H355.2V341.2h124.1V465.3
	z M617.2,465.3H493.1V341.2h124.1V465.3z M493.1,327.4V203.4h124.1v124.1L493.1,327.4L493.1,327.4z"/>
</svg>
