<?xml version="1.0" encoding="utf-8"?>
<!-- Generator: Adobe Illustrator 20.1.0, SVG Export Plug-In . SVG Version: 6.00 Build 0)  -->
<svg version="1.1" id="Layer_1" xmlns="http://www.w3.org/2000/svg" xmlns:xlink="http://www.w3.org/1999/xlink" x="0px" y="0px"
	 viewBox="0 0 1920 800" style="enable-background:new 0 0 1920 800;" xml:space="preserve">
<style type="text/css">
	.st0{fill:#00CCFF;}
	.st1{opacity:0.25;fill:#FFFFFF;}
</style>
<rect x="-25.9" class="st0" width="1965.9" height="800"/>
<path class="st1" d="M704.5,162V43.5H574.2V162H455.7v130.3H586V173.8h106.6v118.5H823V162H704.5z M574.2,280.5H467.5V173.8h106.6
	V280.5z M586,162V55.4h106.6V162H586z M811.1,280.5H704.5V173.8h106.6V280.5z"/>
<path class="st1" d="M1405.8,318.9V200.5h-130.3v130.3H1394v106.6v11.8v118.5h130.3V449.2v-11.8V318.9H1405.8z M1287.4,318.9V212.3
	H1394v106.6H1287.4z M1512.5,555.8h-106.6V449.2h106.6V555.8z M1405.8,437.4V330.8h106.6v106.6H1405.8z"/>
<path class="st1" d="M562.2,620.9V502.6H444V384.3H313.8v130.1h118.3v118.3h118.3V751h130.1V620.9H562.2z M325.7,502.6V396.2h106.5
	v106.5H325.7z M444,620.9V514.5h106.5v106.5H444z M668.7,739.2H562.2V632.8h106.5V739.2z"/>
</svg>
