<?xml version="1.0" encoding="UTF-8" standalone="no"?>
<svg width="50px" height="50px" viewBox="0 0 50 50" version="1.1" xmlns="http://www.w3.org/2000/svg" xmlns:xlink="http://www.w3.org/1999/xlink" xmlns:sketch="http://www.bohemiancoding.com/sketch/ns">
    <!-- Generator: Sketch 3.2.2 (9983) - http://www.bohemiancoding.com/sketch -->
    <title>Imported Layers</title>
    <desc>Created with Sketch.</desc>
    <defs></defs>
    <g id="Page-1" stroke="none" stroke-width="1" fill="none" fill-rule="evenodd" sketch:type="MSPage">
        <g id="INN-Homepage" sketch:type="MSArtboardGroup" transform="translate(-256.000000, -2439.000000)" fill="#AAAAAA">
            <g id="Imported-Layers" sketch:type="MSLayerGroup" transform="translate(256.000000, 2439.000000)">
                <path d="M7.83505338,10.0042553 C7.0455516,9.54946809 7.04501779,8.80549645 7.83505338,8.35088652 L21.702847,0.37251773 C22.4928826,-0.0820921986 23.7862989,-0.0820921986 24.5763345,0.37287234 L38.4411032,8.35053191 C39.2318505,8.80549645 39.2318505,9.54911348 38.4411032,10.0039007 L24.5761566,17.9812057 C23.7859431,18.435461 22.4923488,18.435461 21.7024911,17.9812057 L7.83505338,10.0042553" id="Fill-1" sketch:type="MSShapeGroup"></path>
                <path d="M49.9959075,38.0134752 C49.9959075,37.104078 49.3489324,36.7320922 48.5587189,37.1867021 L46.4951957,38.3735816 C45.7046263,38.8281915 45.058363,39.9439716 45.058363,40.8535461 L45.0587189,43.2271277 C45.0587189,44.1367021 45.7053381,44.5085106 46.4953737,44.0537234 L48.5587189,42.866844 C49.3489324,42.4124113 49.9959075,41.2964539 49.9959075,40.3868794 L49.9959075,38.0134752" id="Fill-2" sketch:type="MSShapeGroup"></path>
                <path d="M38.9740214,33.0315603 C38.9740214,32.8296099 38.9236655,32.7382979 38.9069395,32.7207447 C38.9060498,32.720922 38.8989324,32.7202128 38.8871886,32.7202128 C38.8539146,32.7202128 38.7599644,32.7297872 38.6042705,32.8193262 L33.8951957,35.5283688 C33.3297153,35.854078 32.8144128,36.7434397 32.8144128,37.3943262 L32.8149466,42.8124113 C32.8149466,43.014539 32.8654804,43.1056738 32.8822064,43.123227 C32.8823843,43.1230496 32.8827402,43.1230496 32.8830961,43.1230496 C32.8855872,43.1230496 32.8919929,43.1239362 32.9017794,43.1239362 C32.9348754,43.1239362 33.0288256,43.1141844 33.1839858,43.0248227 L37.8928826,40.3161348 C38.4587189,39.9904255 38.9740214,39.1008865 38.9740214,38.45 L38.9740214,33.0315603" id="Fill-3" sketch:type="MSShapeGroup"></path>
                <path d="M46.5391459,12.2530142 C46.5391459,11.3441489 45.8927046,10.9716312 45.1024911,11.426773 L28.9902135,20.6950355 C28.2001779,21.1498227 27.5535587,22.2657801 27.5535587,23.1753546 L27.5530249,41.7143617 C27.5530249,42.6237589 28.1996441,42.9957447 28.9902135,42.5409574 L31.3912811,41.1597518 L31.3909253,37.3943262 C31.3909253,36.2379433 32.1782918,34.8787234 33.183274,34.3001773 L37.8928826,31.5906028 C38.2266904,31.3989362 38.561032,31.3015957 38.8871886,31.3015957 C39.7765125,31.3015957 40.3975089,32.0131206 40.3975089,33.0315603 L40.3975089,35.9783688 L45.1033808,33.2710993 C45.894306,32.8164894 46.5407473,31.7005319 46.5407473,30.7911348 L46.5391459,12.2530142 L46.5391459,12.2530142 Z M43.1124555,21.9035461 C43.1124555,22.812766 42.4642349,23.9264184 41.6724199,24.3781915 L33.2151246,29.2014184 C32.4231317,29.6531915 31.7747331,29.2787234 31.7747331,28.3695035 L31.7747331,25.5650709 C31.7747331,24.6558511 32.4224199,23.5423759 33.2144128,23.0906028 L41.6724199,18.2664894 C42.4642349,17.8147163 43.1124555,18.1890071 43.1124555,19.0985816 L43.1124555,21.9035461 L43.1124555,21.9035461 Z" id="Fill-4" sketch:type="MSShapeGroup"></path>
                <path d="M9.81548043,17.8677305 L0.532206406,12.5274823 C0.377046263,12.4381206 0.282740214,12.4285461 0.249466192,12.4285461 C0.232918149,12.4285461 0.225800712,12.4306738 0.225800712,12.4308511 C0.216903915,12.4404255 0.162455516,12.5304965 0.162455516,12.7398936 L0.16227758,17.8804965 C0.16227758,18.5317376 0.677224199,19.420922 1.24288256,19.7462766 L10.5279359,25.0882979 C10.683274,25.1776596 10.7772242,25.1874113 10.8103203,25.1874113 C10.8268683,25.1874113 10.8336299,25.1851064 10.8336299,25.1851064 C10.8423488,25.1755319 10.8966192,25.0852837 10.8966192,24.8760638 L10.8966192,19.7336879 C10.8966192,19.0828014 10.3813167,18.1934397 9.81548043,17.8677305" id="Fill-5" sketch:type="MSShapeGroup"></path>
                <path d="M19.9099644,27.9212766 L12.3201068,23.5553191 L12.3201068,24.8760638 C12.3201068,25.8943262 11.6992883,26.6058511 10.8103203,26.6058511 C10.4839858,26.6058511 10.1496441,26.5085106 9.81619217,26.3166667 L2.35854093,22.0260638 L2.35907473,38.0171986 C2.35907473,38.9265957 3.00569395,40.0423759 3.79590747,40.4971631 L19.9081851,49.7656028 C20.6991103,50.2207447 21.3450178,49.8485816 21.3455516,48.9393617 L21.3462633,30.4012411 C21.3467972,29.491844 20.6998221,28.3758865 19.9099644,27.9212766 L19.9099644,27.9212766 Z M15.0645907,42.5271277 L10.3049822,39.7239362 C9.51903915,39.2613475 8.87651246,38.1388298 8.87651246,37.2296099 L8.87651246,32.0890071 C8.8772242,31.1794326 9.51975089,30.8140071 10.3051601,31.2765957 L15.0645907,34.0783688 C15.8501779,34.5411348 16.4930605,35.6634752 16.4930605,36.572695 L16.4932384,41.7148936 C16.4932384,42.6241135 15.8507117,42.989539 15.0645907,42.5271277 L15.0645907,42.5271277 Z" id="Fill-6" sketch:type="MSShapeGroup"></path>
            </g>
        </g>
    </g>
</svg>