<?xml version="1.0" encoding="UTF-8" standalone="no"?>
<svg width="50px" height="49px" viewBox="0 0 50 49" version="1.1" xmlns="http://www.w3.org/2000/svg" xmlns:xlink="http://www.w3.org/1999/xlink" xmlns:sketch="http://www.bohemiancoding.com/sketch/ns">
    <!-- Generator: Sketch 3.2.2 (9983) - http://www.bohemiancoding.com/sketch -->
    <title>gear</title>
    <desc>Created with Sketch.</desc>
    <defs></defs>
    <g id="Page-1" stroke="none" stroke-width="1" fill="none" fill-rule="evenodd" sketch:type="MSPage">
        <g id="INN-Homepage" sketch:type="MSArtboardGroup" transform="translate(-1135.000000, -2164.000000)" fill="#AAAAAA">
            <g id="gear" sketch:type="MSLayerGroup" transform="translate(1134.749673, 2164.000000)">
                <path d="M25.0076593,36.1216528 C18.6339154,36.1216528 13.4484528,30.9766494 13.4484528,24.6542146 C13.4484528,18.3317797 18.6339154,13.1880603 25.0076593,13.1880603 C31.3814032,13.1880603 36.5668658,18.3317797 36.5668658,24.6542146 C36.5668658,30.9766494 31.3814032,36.1216528 25.0076593,36.1216528 M25.0076593,15.5775915 C19.9619945,15.5775915 15.8560815,19.6491676 15.8560815,24.6542146 C15.8560815,29.6592615 19.9619945,33.7321216 25.0076593,33.7321216 C30.0533241,33.7321216 34.1592371,29.6592615 34.1592371,24.6542146 C34.1592371,19.6491676 30.0533241,15.5775915 25.0076593,15.5775915" id="Fill-45" sketch:type="MSShapeGroup"></path>
                <path d="M28.4637714,48.9604071 L21.5515472,48.9604071 L19.5568398,43.0283094 C18.2378217,42.6443922 16.9666973,42.1205187 15.7615885,41.4695287 L10.1256664,44.2648051 L5.23662684,39.4164066 L8.05588235,33.8245699 C7.39831495,32.6330144 6.8727788,31.3695546 6.48445159,30.0611547 L0.504212623,28.0837888 L0.504212623,21.2259243 L6.48445159,19.2485584 C6.8727788,17.9375905 7.39831495,16.6766988 8.05588235,15.4825752 L5.23662684,9.89202251 L10.1256664,5.04234004 L15.7615885,7.83890038 C16.9666973,7.18534243 18.2378217,6.66403688 19.5568398,6.27883573 L21.5515472,0.346738027 L28.4637714,0.346738027 L30.4584789,6.27883573 C31.7774969,6.66403688 33.0486213,7.18534243 34.2537301,7.83890038 L39.8896523,5.04234004 L44.7773974,9.89202251 L41.9594363,15.4825752 C42.6157093,16.6766988 43.1425398,17.9375905 43.530867,19.2485584 L49.511106,21.2259243 L49.511106,28.0837888 L43.530867,30.0611547 C43.1425398,31.3695546 42.6157093,32.6330144 41.9594363,33.8245699 L44.7773974,39.4164066 L39.8896523,44.2648051 L34.2537301,41.4695287 C33.0486213,42.1205187 31.7774969,42.6443922 30.4584789,43.0283094 L28.4637714,48.9604071 L28.4637714,48.9604071 Z M23.2860754,46.570876 L26.7292433,46.570876 L28.5854473,41.0509435 L29.2197151,40.889159 C30.7613741,40.4975378 32.2370175,39.891488 33.6039292,39.0889856 L34.1682981,38.7564286 L39.4145987,41.3603884 L41.8494102,38.9451772 L39.2230239,33.7411097 L39.5595741,33.18 C40.3660003,31.829228 40.9769684,30.3654636 41.375651,28.832363 L41.5387485,28.2019171 L47.1034773,26.3619397 L47.1034773,22.9477735 L41.5387485,21.105228 L41.375651,20.4773501 C40.9769684,18.9429655 40.3660003,17.4804852 39.5595741,16.1271451 L39.2230239,15.5686034 L41.8494102,10.3632519 L39.4145987,7.94804071 L34.1682981,10.5507165 L33.6039292,10.2194435 C32.2370175,9.41694109 30.7613741,8.81217529 29.2197151,8.41798611 L28.5854473,8.25748563 L26.7292433,2.73626916 L23.2860754,2.73626916 L21.4298713,8.25748563 L20.7956036,8.41798611 C19.2539445,8.81217529 17.7783012,9.41694109 16.4113894,10.2194435 L15.8470205,10.5507165 L10.60072,7.94804071 L8.16590839,10.3632519 L10.7910003,15.5686034 L10.4557445,16.1271451 C9.64931832,17.4804852 9.03835018,18.9429655 8.63966759,20.4773501 L8.47786458,21.105228 L2.9118413,22.9477735 L2.9118413,26.3619397 L8.47786458,28.2019171 L8.63966759,28.832363 C9.03835018,30.3654636 9.64931832,31.829228 10.4557445,33.18 L10.7910003,33.7411097 L8.16590839,38.9451772 L10.60072,41.3603884 L15.8470205,38.7564286 L16.4113894,39.0889856 C17.7783012,39.891488 19.2539445,40.4975378 20.7956036,40.889159 L21.4298713,41.0509435 L23.2860754,46.570876 L23.2860754,46.570876 Z" id="Fill-46" sketch:type="MSShapeGroup"></path>
            </g>
        </g>
    </g>
</svg>